<?xml version="1.0" encoding="UTF-8" standalone="no"?>
<svg
   xmlns:dc="http://purl.org/dc/elements/1.1/"
   xmlns:cc="http://creativecommons.org/ns#"
   xmlns:rdf="http://www.w3.org/1999/02/22-rdf-syntax-ns#"
   xmlns:svg="http://www.w3.org/2000/svg"
   xmlns="http://www.w3.org/2000/svg"
   xmlns:sodipodi="http://sodipodi.sourceforge.net/DTD/sodipodi-0.dtd"
   xmlns:inkscape="http://www.inkscape.org/namespaces/inkscape"
   version="1.1"
   id="Capa_1"
   x="0px"
   y="0px"
   viewBox="0 0 512 512"
   style="enable-background:new 0 0 512 512;"
   xml:space="preserve"
   sodipodi:docname="icons-sizing - copia (3).svg"
   inkscape:version="1.0.1 (3bc2e813f5, 2020-09-07)"><metadata
   id="metadata2601"><rdf:RDF><cc:Work
       rdf:about=""><dc:format>image/svg+xml</dc:format><dc:type
         rdf:resource="http://purl.org/dc/dcmitype/StillImage" /><dc:title /></cc:Work></rdf:RDF></metadata><defs
   id="defs2599" /><sodipodi:namedview
   pagecolor="#3c3c3c"
   bordercolor="#666666"
   borderopacity="1"
   objecttolerance="10"
   gridtolerance="10"
   guidetolerance="10"
   inkscape:pageopacity="0"
   inkscape:pageshadow="2"
   inkscape:window-width="1366"
   inkscape:window-height="706"
   id="namedview2597"
   showgrid="false"
   inkscape:showpageshadow="false"
   inkscape:zoom="0.52539063"
   inkscape:cx="130.12822"
   inkscape:cy="273.3234"
   inkscape:window-x="-8"
   inkscape:window-y="-8"
   inkscape:window-maximized="1"
   inkscape:current-layer="Capa_1"
   inkscape:document-rotation="0" />






















<g
   id="Electric_Loop"
   data-name="Electric Loop"
   transform="scale(8)"
   style="display:inline"><path
     d="M 59.49,10.17 56.66,13 A 4.0022244,4.0022244 0 0 1 51,7.34 l 2.83,-2.83 z"
     fill="#ffdaaa"
     id="path3188" /><path
     d="m 56.61,50.95 a 4.0022244,4.0022244 0 0 1 -5.66,5.66 l -2.83,-2.83 5.66,-5.66 z"
     fill="#ffdaaa"
     id="path3190" /><path
     d="M 44,28 32,52 V 36 H 20 L 32,12 v 16 z"
     fill="#ffde55"
     id="path3192" /><path
     d="M 15.88,10.22 10.22,15.88 7.39,13.05 A 4.0022244,4.0022244 0 0 1 13.05,7.39 Z"
     fill="#ffdaaa"
     id="path3194" /><path
     d="M 4.51,53.83 7.34,51 A 4.0022244,4.0022244 0 0 1 13,56.66 l -2.83,2.83 z"
     fill="#ffdaaa"
     id="path3196" /><path
     d="m 17.29,15.88 1.42,-1.42 -2.83,-2.82 0.71,-0.71 A 1.033,1.033 0 0 0 16.88,10.22 1.052,1.052 0 0 0 16.59,9.51 L 13.76,6.69 A 5.006,5.006 0 0 0 7.47,6.05 L 3.1,1.69 1.69,3.1 6.05,7.46 a 5.019,5.019 0 0 0 0.64,6.3 l 2.82,2.83 a 1.052,1.052 0 0 0 0.71,0.29 1.033,1.033 0 0 0 0.71,-0.29 l 0.71,-0.71 2.82,2.83 1.42,-1.42 -2.83,-2.83 1.41,-1.41 z M 10.22,14.46 8.1,12.34 A 3,3 0 1 1 12.34,8.1 l 2.12,2.12 z"
     id="path3198" /><path
     d="M 59.49,8.76 62.31,5.93 60.9,4.51 58.07,7.34 56.66,5.93 59.49,3.1 58.07,1.69 55.24,4.51 54.54,3.81 a 1.008,1.008 0 0 0 -1.42,0 l -2.83,2.83 a 5,5 0 0 0 -0.63,6.29 l -4.37,4.36 1.42,1.42 4.36,-4.37 a 5,5 0 0 0 6.29,-0.63 l 2.83,-2.83 a 1.008,1.008 0 0 0 0,-1.42 z m -3.54,3.53 A 3,3 0 1 1 51.71,8.05 l 2.12,-2.12 4.24,4.24 z"
     id="path3200" /><path
     d="m 57.95,56.54 a 5.019,5.019 0 0 0 -0.64,-6.3 l -2.82,-2.83 a 1.052,1.052 0 0 0 -0.71,-0.29 1.033,1.033 0 0 0 -0.71,0.29 l -0.71,0.71 -2.82,-2.83 -1.42,1.42 2.83,2.83 -1.41,1.41 -2.83,-2.83 -1.42,1.42 2.83,2.82 -0.71,0.71 a 1.033,1.033 0 0 0 -0.29,0.71 1.052,1.052 0 0 0 0.29,0.71 l 2.83,2.82 a 4.986,4.986 0 0 0 6.29,0.64 l 4.37,4.36 1.41,-1.41 z M 55.9,55.9 a 3,3 0 0 1 -4.24,0 l -2.12,-2.12 4.24,-4.24 2.12,2.12 a 3,3 0 0 1 0,4.24 z"
     id="path3202" /><path
     d="m 18.71,46.71 -1.42,-1.42 -4.36,4.37 a 5,5 0 0 0 -6.29,0.63 l -2.83,2.83 a 1.008,1.008 0 0 0 0,1.42 l 0.7,0.7 -2.82,2.83 1.41,1.42 2.83,-2.83 1.41,1.41 -2.83,2.83 1.42,1.41 2.83,-2.82 0.7,0.7 a 1.01,1.01 0 0 0 0.71,0.3 0.992,0.992 0 0 0 0.71,-0.3 l 2.83,-2.83 a 5,5 0 0 0 0.63,-6.29 z m -6.42,9.24 -2.12,2.12 -4.24,-4.24 2.12,-2.12 a 3,3 0 1 1 4.24,4.24 z"
     id="path3204" /><path
     d="M 44.85,27.47 A 1,1 0 0 0 44,27 H 33 V 12 a 1,1 0 0 0 -0.77,-0.97 0.984,0.984 0 0 0 -1.12,0.52 l -12,24 A 1,1 0 0 0 20,37 H 31 V 52 A 1,1 0 0 0 31.77,52.97 0.908,0.908 0 0 0 32,53 1,1 0 0 0 32.89,52.45 l 12,-24 A 1.007,1.007 0 0 0 44.85,27.47 Z M 33,47.76 V 36 A 1,1 0 0 0 32,35 H 21.62 L 31,16.24 V 28 a 1,1 0 0 0 1,1 h 10.38 z"
     id="path3206" /></g></svg>
