<?xml version="1.0" encoding="UTF-8" standalone="no"?>
<svg
   xmlns:dc="http://purl.org/dc/elements/1.1/"
   xmlns:cc="http://creativecommons.org/ns#"
   xmlns:rdf="http://www.w3.org/1999/02/22-rdf-syntax-ns#"
   xmlns:svg="http://www.w3.org/2000/svg"
   xmlns="http://www.w3.org/2000/svg"
   xmlns:sodipodi="http://sodipodi.sourceforge.net/DTD/sodipodi-0.dtd"
   xmlns:inkscape="http://www.inkscape.org/namespaces/inkscape"
   version="1.1"
   id="Capa_1"
   x="0px"
   y="0px"
   viewBox="0 0 512 512"
   style="enable-background:new 0 0 512 512;"
   xml:space="preserve"
   sodipodi:docname="icons-sizing - copia (2).svg"
   inkscape:version="1.0.1 (3bc2e813f5, 2020-09-07)"><metadata
   id="metadata2601"><rdf:RDF><cc:Work
       rdf:about=""><dc:format>image/svg+xml</dc:format><dc:type
         rdf:resource="http://purl.org/dc/dcmitype/StillImage" /><dc:title /></cc:Work></rdf:RDF></metadata><defs
   id="defs2599" /><sodipodi:namedview
   pagecolor="#3c3c3c"
   bordercolor="#666666"
   borderopacity="1"
   objecttolerance="10"
   gridtolerance="10"
   guidetolerance="10"
   inkscape:pageopacity="0"
   inkscape:pageshadow="2"
   inkscape:window-width="1366"
   inkscape:window-height="706"
   id="namedview2597"
   showgrid="false"
   inkscape:showpageshadow="false"
   inkscape:zoom="0.52539063"
   inkscape:cx="130.12822"
   inkscape:cy="273.3234"
   inkscape:window-x="-8"
   inkscape:window-y="-8"
   inkscape:window-maximized="1"
   inkscape:current-layer="Capa_1"
   inkscape:document-rotation="0" />






















<g
   id="g3579"
   style="display:inline"><path
     d="m 89,24 h 152 a 24,24 0 0 1 24,24 24,24 0 0 1 -24,24 H 89 Z"
     fill="#eb423f"
     id="path3527" /><path
     d="M 57,32 H 89 V 64 H 57 Z"
     fill="#c7312e"
     id="path3529" /><path
     d="m 177,72 h 48 v 48 h -48 z"
     fill="#e9eef2"
     id="path3531" /><path
     d="m 137,96 v 8 A 48,48 0 0 1 89,152 16,16 0 0 1 73,136 16,16 0 0 1 89,120 16,16 0 0 0 105,104 V 72 h 32 z"
     fill="#c7312e"
     id="path3533" /><path
     d="m 161,120 h 80 v 64 h -80 z"
     fill="#c7312e"
     id="path3535" /><path
     d="m 145,200 v 8 a 32,32 0 0 1 -32,32 H 97 a 32,32 0 0 0 -32,32 v 184 a 32,32 0 0 0 32,32 h 128 a 32,32 0 0 0 32,-32 V 200 a 32,32 0 0 0 -32,-32 h -48 a 32,32 0 0 0 -32,32 z"
     fill="#eb423f"
     id="path3537" /><path
     d="m 193,216 v 40 a 16,16 0 0 1 -16,16 h -64 a 16,16 0 0 0 -16,16 v 152 a 16,16 0 0 0 16,16 h 96 a 16,16 0 0 0 16,-16 V 216 a 16,16 0 0 0 -16,-16 16,16 0 0 0 -16,16 z"
     fill="#e9eef2"
     id="path3539" /><path
     d="M 393,56 H 345 V 31.135 l 18.94,-6.314 a 16,16 0 0 1 10.12,0 L 393,31.135 Z"
     fill="#d46109"
     id="path3541" /><path
     d="m 345,56 h 48 v 40 h -48 z"
     fill="#ed8424"
     id="path3543" /><path
     d="m 409,488 a 32,32 0 0 0 32,-32 V 272 c 0,-8 -8,-16 -8,-24 0,-8 8,-15.75 8,-24 0,-8 -8,-16 -8,-24 0,-8 8,-15.75 8,-24 v -16.02 h -0.04 a 71.98,71.98 0 1 0 -143.96,0 V 176 c 0,8.25 8,16 8,24 0,8 -8,16 -8,24 0,8.25 8,16 8,24 0,8 -8,16 -8,24 v 184 a 32,32 0 0 0 32,32 z"
     fill="#ff8e26"
     id="path3545" /><path
     d="m 369,120 a 40,40 0 0 1 40,40 v 8 a 16,16 0 0 1 -16,16 h -48 a 16,16 0 0 1 -16,-16 v -8 a 40,40 0 0 1 40,-40 z"
     fill="#ffd33a"
     id="path3547" /><path
     d="m 160,424 h 288 v 64 H 160 Z"
     fill="#dadcde"
     id="path3549" /><path
     d="m 168,376 h 272 a 16,16 0 0 1 16,16 v 32 H 152 v -32 a 16,16 0 0 1 16,-16 z"
     fill="#7e8589"
     id="path3551" /><path
     d="m 392,192 a 24.027,24.027 0 0 0 24,-24 v -8 a 48,48 0 0 0 -96,0 v 8 a 24.027,24.027 0 0 0 24,24 z m -56,-24 v -8 a 32,32 0 0 1 64,0 v 8 a 8.009,8.009 0 0 1 -8,8 h -48 a 8.009,8.009 0 0 1 -8,-8 z"
     id="path3553" /><path
     d="m 240,80 a 32,32 0 0 0 0,-64 H 88 a 8,8 0 0 0 -8,8 H 56 a 8,8 0 0 0 -8,8 v 32 a 8,8 0 0 0 8,8 h 24 a 8,8 0 0 0 8,8 h 8 v 24 a 8.009,8.009 0 0 1 -8,8 24,24 0 0 0 0,48 56.063,56.063 0 0 0 56,-56 V 80 h 24 v 32 h -8 a 8,8 0 0 0 -8,8 v 48 h 0.028 A 39.964,39.964 0 0 0 136,200 v 8 a 24.027,24.027 0 0 1 -24,24 H 96 a 40.045,40.045 0 0 0 -40,40 v 184 a 40.045,40.045 0 0 0 40,40 h 352 a 8,8 0 0 0 8,-8 v -56 a 8,8 0 0 0 8,-8 V 392 A 24.039,24.039 0 0 0 448,369.376 V 272 c 0,-5.889 -2.574,-11.036 -4.845,-15.578 C 441.6,253.319 440,250.111 440,248 c 0,-2.067 1.575,-5.192 3.1,-8.214 2.3,-4.559 4.9,-9.727 4.9,-15.786 0,-5.889 -2.574,-11.036 -4.845,-15.578 C 441.6,205.319 440,202.111 440,200 c 0,-2.067 1.575,-5.192 3.1,-8.214 2.3,-4.559 4.9,-9.727 4.9,-15.786 V 159.966 A 80.1,80.1 0 0 0 400,86.7 V 31.135 a 8,8 0 0 0 -5.47,-7.59 l -18.941,-6.314 a 24.167,24.167 0 0 0 -15.178,0 L 341.47,23.545 A 8,8 0 0 0 336,31.135 V 86.7 a 80.1,80.1 0 0 0 -48,73.266 V 176 c 0,6.059 2.6,11.227 4.9,15.786 1.523,3.022 3.1,6.147 3.1,8.214 0,2.111 -1.6,5.319 -3.155,8.422 -2.271,4.542 -4.845,9.689 -4.845,15.578 0,6.059 2.6,11.227 4.9,15.786 1.523,3.022 3.1,6.147 3.1,8.214 0,2.111 -1.6,5.319 -3.155,8.422 C 290.574,260.964 288,266.111 288,272 v 96 H 264 V 200 A 39.964,39.964 0 0 0 247.972,168 H 248 v -48 a 8,8 0 0 0 -8,-8 h -8 V 80 Z M 80,56 H 64 V 40 h 16 z m 48,48 a 40.045,40.045 0 0 1 -40,40 8,8 0 0 1 0,-16 24.027,24.027 0 0 0 24,-24 V 80 h 16 z m 40,24 h 64 v 32.805 A 40.028,40.028 0 0 0 224,160 h -48 a 40.028,40.028 0 0 0 -8,0.805 z m 16,-16 V 80 h 32 v 32 z m -32,336 h -40 a 8.009,8.009 0 0 1 -8,-8 V 288 a 8.009,8.009 0 0 1 8,-8 h 64 a 24.028,24.028 0 0 0 24,-24 v -40 a 8,8 0 0 1 16,0 v 152 h -48 a 24.027,24.027 0 0 0 -24,24 v 32 a 8,8 0 0 0 8,8 z m 288,32 h -16 v -24 a 8,8 0 0 0 -16,0 v 24 h -16 v -24 a 8,8 0 0 0 -16,0 v 24 h -16 v -24 a 8,8 0 0 0 -16,0 v 24 h -16 v -24 a 8,8 0 0 0 -16,0 v 24 h -16 v -24 a 8,8 0 0 0 -16,0 v 24 h -16 v -24 a 8,8 0 0 0 -16,0 v 24 h -16 v -24 a 8,8 0 0 0 -16,0 v 24 h -16 v -24 a 8,8 0 0 0 -16,0 v 24 H 168 V 432 H 440 Z M 352,36.9 365.47,32.411 a 8.034,8.034 0 0 1 5.06,0 L 384,36.9 V 48 h -32 z m 0,27.1 h 32 v 17.61 a 80.308,80.308 0 0 0 -32,0 z m -48,208 c 0,-2.111 1.6,-5.319 3.155,-8.422 2.271,-4.542 4.845,-9.689 4.845,-15.578 0,-5.871 -2.555,-10.941 -4.81,-15.415 -1.568,-3.112 -3.19,-6.33 -3.19,-8.585 0,-2.111 1.6,-5.319 3.155,-8.422 2.271,-4.542 4.845,-9.689 4.845,-15.578 0,-5.871 -2.555,-10.941 -4.81,-15.415 C 305.622,181.473 304,178.255 304,176 v -16 a 64.00057,64.00057 0 0 1 128,-0.54 7.869,7.869 0 0 0 0,1.075 V 176 c 0,2.255 -1.622,5.473 -3.19,8.585 -2.255,4.474 -4.81,9.544 -4.81,15.415 0,5.889 2.574,11.036 4.845,15.578 1.555,3.103 3.155,6.311 3.155,8.422 0,2.255 -1.622,5.473 -3.19,8.585 -2.255,4.474 -4.81,9.544 -4.81,15.415 0,5.889 2.574,11.036 4.845,15.578 1.555,3.103 3.155,6.311 3.155,8.422 v 96 h -24 v -72 a 8,8 0 0 0 -16,0 v 72 h -16 v -72 a 8,8 0 0 0 -16,0 v 72 h -16 v -72 a 8,8 0 0 0 -16,0 v 72 h -24 z m 136,112 a 8.009,8.009 0 0 1 8,8 v 24 H 160 v -24 a 8.009,8.009 0 0 1 8,-8 z M 248,200 V 368 H 232 V 216 a 24,24 0 0 0 -48,0 v 40 a 8.009,8.009 0 0 1 -8,8 h -64 a 24.028,24.028 0 0 0 -24,24 v 152 a 24.028,24.028 0 0 0 24,24 h 40 v 16 H 96 A 24.027,24.027 0 0 1 72,456 V 272 a 24.027,24.027 0 0 1 24,-24 h 16 a 39.8,39.8 0 0 0 23.974,-8 H 160 a 8,8 0 0 0 0,-16 H 148.65 A 39.759,39.759 0 0 0 152,208 h 8 a 8,8 0 0 0 0,-16 h -6.624 A 24.039,24.039 0 0 1 176,176 h 48 a 24.027,24.027 0 0 1 24,24 z M 96,64 V 32 h 144 a 16,16 0 0 1 0,32 z"
     id="path3555" /></g></svg>
