<?xml version="1.0" encoding="UTF-8" standalone="no"?>
<svg
   xmlns:dc="http://purl.org/dc/elements/1.1/"
   xmlns:cc="http://creativecommons.org/ns#"
   xmlns:rdf="http://www.w3.org/1999/02/22-rdf-syntax-ns#"
   xmlns:svg="http://www.w3.org/2000/svg"
   xmlns="http://www.w3.org/2000/svg"
   xmlns:sodipodi="http://sodipodi.sourceforge.net/DTD/sodipodi-0.dtd"
   xmlns:inkscape="http://www.inkscape.org/namespaces/inkscape"
   version="1.1"
   id="Capa_1"
   x="0px"
   y="0px"
   viewBox="0 0 512 512"
   style="enable-background:new 0 0 512 512;"
   xml:space="preserve"
   sodipodi:docname="icons-sizing - copia.svg"
   inkscape:version="1.0.1 (3bc2e813f5, 2020-09-07)"><metadata
   id="metadata2601"><rdf:RDF><cc:Work
       rdf:about=""><dc:format>image/svg+xml</dc:format><dc:type
         rdf:resource="http://purl.org/dc/dcmitype/StillImage" /><dc:title /></cc:Work></rdf:RDF></metadata><defs
   id="defs2599" /><sodipodi:namedview
   pagecolor="#3c3c3c"
   bordercolor="#666666"
   borderopacity="1"
   objecttolerance="10"
   gridtolerance="10"
   guidetolerance="10"
   inkscape:pageopacity="0"
   inkscape:pageshadow="2"
   inkscape:window-width="1366"
   inkscape:window-height="706"
   id="namedview2597"
   showgrid="false"
   inkscape:showpageshadow="false"
   inkscape:zoom="0.52539063"
   inkscape:cx="130.12822"
   inkscape:cy="273.3234"
   inkscape:window-x="-8"
   inkscape:window-y="-8"
   inkscape:window-maximized="1"
   inkscape:current-layer="Capa_1"
   inkscape:document-rotation="0" />






















<g
   id="g3745"
   transform="matrix(7.7419355,0,0,7.7419355,8.258064,8.258064)"
   style="display:inline"
   inkscape:label="este"><g
     id="g3731"><g
       id="g3713"><path
         d="m 62,39.19 c 0,3.07 -1.26,6.01 -3.49,8.12 l -14.78,14 C 43.26,61.75 42.64,62 42,62 41.36,62 40.74,61.75 40.27,61.31 L 25.53,47.34 C 25.84,46.6 26,45.81 26,45 V 34 c 0,-0.55 -0.22,-1.05 -0.59,-1.41 -0.23,-0.24 -0.53,-0.42 -0.86,-0.51 V 32.07 C 26.61,29.58 29.71,28 33.19,28 h 0.18 c 2.96,0 5.81,1.18 7.91,3.28 L 42,32 42.72,31.28 C 44.82,29.18 47.67,28 50.63,28 h 0.18 c 3.09,0 5.89,1.25 7.91,3.28 2.03,2.02 3.28,4.82 3.28,7.91 z"
         fill="#ff826e"
         id="path3711" /></g><g
       id="g3717"><path
         d="m 25,56 v 6 H 5 v -6 c 0,-1.1 0.9,-2 2,-2 h 16 c 1.1,0 2,0.9 2,2 z"
         fill="#b4dd7f"
         id="path3715" /></g><g
       id="g3721"><path
         d="M 2,2 H 22 V 22 H 2 Z"
         fill="#e6e9ed"
         id="path3719" /></g><g
       id="g3725"><path
         d="m 24,32 0.55,0.08 c 0.33,0.09 0.63,0.27 0.86,0.51 C 25.78,32.95 26,33.45 26,34 v 11 c 0,0.81 -0.16,1.6 -0.47,2.34 -0.19,0.44 -0.44,0.87 -0.73,1.26 L 23,51 v 3 H 7 V 53.96 51 L 4.63,46.22 C 4.21,45.39 4,44.48 4,43.55 V 39.44 C 4,38.47 3.77,37.5 3.34,36.63 L 2.17,34.3 C 2.06,34.08 2,33.83 2,33.58 2,32.68 2.72,31.96 3.62,31.96 h 0.09 c 3.48,0 6.29,2.81 6.29,6.28 V 22 20 c 0,-1.1 0.9,-2 2,-2 0.55,0 1.05,0.22 1.41,0.59 C 13.78,18.95 14,19.45 14,20 v 2 10 c 0,-1.1 0.9,-2 2,-2 0.55,0 1.05,0.22 1.41,0.59 0.37,0.36 0.59,0.86 0.59,1.41 0,-1.1 0.9,-2 2,-2 0.55,0 1.05,0.22 1.41,0.59 C 21.78,30.95 22,31.45 22,32 v 2 c 0,-1.1 0.9,-2 2,-2 z"
         fill="#f0d0b4"
         id="path3723" /></g><g
       id="g3729"><path
         d="m 50,43 v 4 h -6 v 6 h -4 v -6 h -6 v -4 h 6 v -6 h 4 v 6 z"
         fill="#e6e9ed"
         id="path3727" /></g></g><g
     id="g3743"><path
       d="M 19.707,6.707 18.293,5.293 9,14.586 6.707,12.293 5.293,13.707 9,17.414 Z"
       id="path3733" /><path
       d="m 50.813,27 h -0.179 c -3.255,0 -6.315,1.268 -8.617,3.569 L 42,30.586 41.983,30.569 C 39.682,28.268 36.621,27 33.366,27 h -0.179 c -3.46,0 -6.708,1.466 -9.019,4.017 C 24.112,31.014 24.058,31 24,31 23.605,31 23.23,31.081 22.884,31.22 22.539,29.945 21.383,29 20,29 19.229,29 18.532,29.301 18,29.78 17.468,29.3 16.771,29 16,29 c -0.352,0 -0.686,0.072 -1,0.184 V 23 h 8 V 1 H 1 V 23 H 9 V 33.258 C 7.659,31.847 5.755,30.959 3.618,30.958 2.175,30.958 1,32.133 1,33.576 c 0,0.404 0.096,0.81 0.276,1.171 l 1.165,2.331 C 2.807,37.809 3,38.626 3,39.442 v 4.108 c 0,1.075 0.253,2.151 0.73,3.112 L 6,51.234 v 1.95 C 4.839,53.598 4,54.698 4,56 v 7 h 22 v -7 c 0,-1.302 -0.839,-2.402 -2,-2.816 V 51.333 L 25.6,49.2 c 0.061,-0.082 0.105,-0.174 0.163,-0.259 L 39.587,62.038 C 40.241,62.658 41.098,63 42,63 c 0.902,0 1.759,-0.342 2.413,-0.962 L 59.194,48.035 C 61.613,45.743 63,42.519 63,39.188 63,32.468 57.532,27 50.813,27 Z M 3,21 V 3 h 18 v 18 h -6 v -1 c 0,-1.654 -1.346,-3 -3,-3 -1.654,0 -3,1.346 -3,3 v 1 z M 24,61 H 6 v -5 c 0,-0.552 0.448,-1 1,-1 h 16 c 0.552,0 1,0.448 1,1 z M 22,50.667 V 53 H 8 V 50.766 L 5.521,45.774 C 5.181,45.087 5,44.318 5,43.551 V 39.443 C 5,38.318 4.733,37.191 4.23,36.184 L 3.065,33.853 C 3.022,33.768 3,33.672 3,33.576 3,33.235 3.277,32.958 3.714,32.958 6.629,32.959 9,35.331 9,38.245 v 1.713 2 h 2 v -2 V 38.245 20 c 0,-0.552 0.448,-1 1,-1 0.552,0 1,0.448 1,1 v 12 4 h 2 v -4 c 0,-0.552 0.448,-1 1,-1 0.552,0 1,0.448 1,1 v 4 h 2 v -4 c 0,-0.552 0.448,-1 1,-1 0.552,0 1,0.448 1,1 v 2 2 h 2 v -2 c 0,-0.552 0.448,-1 1,-1 0.552,0 1,0.448 1,1 v 11 c 0,1.075 -0.355,2.141 -1,3 z M 57.819,46.584 43.038,60.587 c -0.563,0.533 -1.514,0.533 -2.076,0 L 26.678,47.055 C 26.882,46.39 27,45.698 27,45 V 34 C 27,33.165 26.656,32.41 26.104,31.866 27.996,30.033 30.52,29 33.188,29 h 0.179 c 2.721,0 5.279,1.06 7.203,2.983 L 42,33.414 43.431,31.983 C 45.354,30.06 47.913,29 50.634,29 h 0.179 C 56.43,29 61,33.57 61,39.188 c 0,2.784 -1.159,5.48 -3.181,7.396 z"
       id="path3735" /><path
       d="m 51.021,31.002 -0.051,2 c 3.325,0.084 6.03,2.859 6.03,6.186 0,1.152 -0.325,2.285 -0.939,3.274 l 1.699,1.055 C 58.572,42.211 59,40.714 59,39.188 59,34.786 55.421,31.114 51.021,31.002 Z"
       id="path3737" /><path
       d="m 52.588,45.013 h 2.943 v 1.999 h -2.943 z"
       transform="matrix(0.726,-0.688,0.688,0.726,-16.83,49.794)"
       id="path3739" /><path
       d="m 45,36 h -6 v 6 h -6 v 6 h 6 v 6 h 6 v -6 h 6 v -6 h -6 z m 4,8 v 2 h -6 v 6 h -2 v -6 h -6 v -2 h 6 v -6 h 2 v 6 z"
       id="path3741" /></g></g></svg>
