<?xml version="1.0" encoding="UTF-8" standalone="no"?>
<svg
   xmlns:dc="http://purl.org/dc/elements/1.1/"
   xmlns:cc="http://creativecommons.org/ns#"
   xmlns:rdf="http://www.w3.org/1999/02/22-rdf-syntax-ns#"
   xmlns:svg="http://www.w3.org/2000/svg"
   xmlns="http://www.w3.org/2000/svg"
   xmlns:sodipodi="http://sodipodi.sourceforge.net/DTD/sodipodi-0.dtd"
   xmlns:inkscape="http://www.inkscape.org/namespaces/inkscape"
   version="1.1"
   id="Capa_1"
   x="0px"
   y="0px"
   viewBox="0 0 512 512"
   style="enable-background:new 0 0 512 512;"
   xml:space="preserve"
   sodipodi:docname="icons-sizing.svg"
   inkscape:version="1.0.1 (3bc2e813f5, 2020-09-07)"><metadata
   id="metadata2601"><rdf:RDF><cc:Work
       rdf:about=""><dc:format>image/svg+xml</dc:format><dc:type
         rdf:resource="http://purl.org/dc/dcmitype/StillImage" /><dc:title></dc:title></cc:Work></rdf:RDF></metadata><defs
   id="defs2599" /><sodipodi:namedview
   pagecolor="#3c3c3c"
   bordercolor="#666666"
   borderopacity="1"
   objecttolerance="10"
   gridtolerance="10"
   guidetolerance="10"
   inkscape:pageopacity="0"
   inkscape:pageshadow="2"
   inkscape:window-width="1366"
   inkscape:window-height="706"
   id="namedview2597"
   showgrid="false"
   inkscape:showpageshadow="false"
   inkscape:zoom="0.52539063"
   inkscape:cx="130.12822"
   inkscape:cy="273.3234"
   inkscape:window-x="-8"
   inkscape:window-y="-8"
   inkscape:window-maximized="1"
   inkscape:current-layer="Capa_1" />






















<g
   id="g3657"
   transform="matrix(0.99999768,0,0,0.99999768,0.00114975,7.7037932e-4)"
   style="display:inline"
   inkscape:label="este"><path
     d="M 421.08,197.46 A 80.007,80.007 0 0 1 392,352 H 184 a 80.011,80.011 0 0 1 -36.14,-151.39 80.084,80.084 0 0 1 57.93,-102.53 80.021,80.021 0 0 1 147.79,-1.51 80.048,80.048 0 0 1 67.5,100.89 z"
     fill="#35a872"
     id="path3581" /><path
     d="m 352,240 -32,42.667 V 240 h -64 v 42.667 L 224,240 l -32,24 64,88 v 112 h 64 V 352 l 64,-88 z"
     fill="#3dc285"
     id="path3583" /><path
     d="m 104,208 a 64,64 0 0 1 -64,64 64,64 0 0 1 64,-64 z"
     fill="#35a872"
     transform="rotate(90,72,240)"
     id="path3585" /><g
     fill="#3dc285"
     id="g3593"><path
       d="m 104,224 h 32 v 80 h -32 z"
       id="path3587" /><path
       d="m 408,416 h 80 v 32 h -80 z"
       id="path3589" /><path
       d="m 408,352 h 80 v 32 h -80 z"
       id="path3591" /></g><path
     d="m 392,384 h 80 v 32 h -80 z"
     fill="#35a872"
     id="path3595" /><circle
     cx="120"
     cy="368"
     fill="#ff8e26"
     r="96"
     id="circle3597" /><path
     d="m 160,448 v -5.976 a 16,16 0 0 1 9.02,-14.4 L 378.039,326.284 A 32,32 0 0 1 424,355.078 V 432 a 32,32 0 0 1 -32,32 H 176 a 16,16 0 0 1 -16,-16 z"
     fill="#ed8424"
     id="path3599" /><path
     d="m 328,464 v -32 a 16,16 0 0 0 -16,-16 16,16 0 0 0 -16,16 v 32 z"
     fill="#ff8e26"
     id="path3601" /><path
     d="m 392,464 v -32 a 16,16 0 0 0 -16,-16 16,16 0 0 0 -16,16 v 32 z"
     fill="#ff8e26"
     id="path3603" /><path
     d="m 264,464 v -32 a 16,16 0 0 0 -16,-16 16,16 0 0 0 -16,16 v 32 z"
     fill="#ff8e26"
     id="path3605" /><path
     d="m 376,136 h 16 v 16 h -16 z"
     id="path3607" /><path
     d="m 376,168 h 16 v 16 h -16 z"
     id="path3609" /><path
     d="m 344,152 h 16 v 16 h -16 z"
     id="path3611" /><path
     d="m 176,208 h 16 v 16 h -16 z"
     id="path3613" /><path
     d="m 176,176 h 16 v 16 h -16 z"
     id="path3615" /><path
     d="m 208,192 h 16 v 16 h -16 z"
     id="path3617" /><path
     d="M 488,344 H 442.642 A 88.034,88.034 0 0 0 430.394,192.8 88.085,88.085 0 0 0 359.038,89.282 88.024,88.024 0 0 0 199.993,91.316 88.115,88.115 0 0 0 138.45,196.7 89.089,89.089 0 0 0 116.118,216 H 104 a 8,8 0 0 0 -8,8 v 2.815 A 71.883,71.883 0 0 0 40,200 8,8 0 0 0 32,208 72.1,72.1 0 0 0 75.408,274.064 103.988,103.988 0 0 0 120,472 103.078,103.078 0 0 0 158.662,464.568 23.925,23.925 0 0 0 176,472 h 216 a 39.964,39.964 0 0 0 32,-16.028 V 456 h 64 a 8,8 0 0 0 8,-8 v -32 a 8,8 0 0 0 -8,-8 h -8 v -16 h 8 a 8,8 0 0 0 8,-8 v -32 a 8,8 0 0 0 -8,-8 z M 151.482,207.743 a 8,8 0 0 0 3.989,-9.6 72.084,72.084 0 0 1 52.129,-92.271 8,8 0 0 0 5.606,-4.8 72.021,72.021 0 0 1 133.015,-1.357 8,8 0 0 0 6.409,4.8 72.046,72.046 0 0 1 60.742,90.792 8,8 0 0 0 4.8,9.607 72.024,72.024 0 0 1 8.51,130.2 40.046,40.046 0 0 0 -52.133,-16.029 l -32,15.517 47.926,-65.9 a 8,8 0 0 0 -1.67,-11.1 l -32,-24 a 8,8 0 0 0 -11.2,1.6 L 328,258.668 V 240 a 8,8 0 0 0 -8,-8 h -64 a 8,8 0 0 0 -8,8 v 18.668 L 230.4,235.2 a 8,8 0 0 0 -11.2,-1.6 l -32,24 a 8,8 0 0 0 -1.67,11.1 L 240.29,344 H 221.176 A 103.865,103.865 0 0 0 144,266.828 V 224 a 8,8 0 0 0 -5.647,-7.647 72.323,72.323 0 0 1 13.129,-8.61 z M 223.683,360 H 248 v 20.443 l -27.17,13.173 A 103.939,103.939 0 0 0 224,368 c 0,-2.681 -0.115,-5.352 -0.317,-8 z m 38.787,-12.7 -59.364,-81.63 19.294,-14.47 27.2,36.27 a 8,8 0 0 0 14.4,-4.8 V 248 h 48 v 34.67 a 8,8 0 0 0 14.4,4.8 l 27.2,-36.27 19.294,14.47 -59.364,81.63 a 7.955,7.955 0 0 0 -0.98,1.851 L 264,372.685 V 352 a 8,8 0 0 0 -1.53,-4.7 z M 128,232 v 32.329 c -2.655,-0.2 -5.322,-0.329 -8,-0.329 -2.678,0 -5.348,0.115 -8,0.316 V 232 Z M 48.67,216.67 A 56.135,56.135 0 0 1 95.33,263.33 56.135,56.135 0 0 1 48.67,216.67 Z M 152,442.023 V 448 c 0,0.662 0.034,1.316 0.087,1.965 a 87.934,87.934 0 1 1 48.486,-46.527 l -35.044,16.991 A 24.137,24.137 0 0 0 152,442.023 Z M 256,456 h -16 v -24 a 8,8 0 0 1 16,0 z m 64,0 h -16 v -24 a 8,8 0 0 1 16,0 z m 64,0 h -16 v -24 a 8,8 0 0 1 16,0 z m 32,-24 a 24.039,24.039 0 0 1 -16,22.624 V 432 a 24,24 0 0 0 -48,0 v 24 h -16 v -24 a 24,24 0 0 0 -48,0 v 24 h -16 v -24 a 24,24 0 0 0 -48,0 v 24 h -48 a 8.009,8.009 0 0 1 -8,-8 v -5.977 a 8.045,8.045 0 0 1 4.51,-7.2 L 381.529,333.482 A 24,24 0 0 1 416,355.078 Z m 64,8 h -48.8 a 40.028,40.028 0 0 0 0.805,-8 v -8 h 48 z m -16,-32 h -32 v -16 h 32 z m 16,-32 h -48 v -16 h 48 z"
     id="path3619" /><path
     d="m 48,376 h 16 v 16 H 48 Z"
     id="path3621" /><path
     d="m 48,344 h 16 v 16 H 48 Z"
     id="path3623" /><path
     d="m 80,360 h 16 v 16 H 80 Z"
     id="path3625" /></g></svg>
